<svg width="174" height="218" viewBox="0 0 174 218" fill="none" xmlns="http://www.w3.org/2000/svg">
<path d="M0 217.9V0.118749C0 0.118749 26.0148 -2.11109 40.8804 12.7545C55.7459 27.6201 55.0027 51.7767 55.0027 51.7767V154.349C55.0027 154.349 54.3824 160.63 57.9758 164.012C61.3578 167.195 66.8951 166.985 66.8951 166.985H104.431C104.431 166.985 135.648 164.755 155.903 185.009C176.157 205.264 173.927 217.9 173.927 217.9H0Z" fill="url(#paint0_linear_1_50)"/>
<path d="M131.932 140.97V84.1092H86.9635C86.9635 84.1092 84.7337 84.4809 82.5038 82.9943C80.274 81.5077 80.274 79.6495 80.274 79.6495V130.193C80.274 130.193 79.9024 134.652 83.2471 137.997C86.5919 141.342 90.6799 140.97 90.6799 140.97H131.932Z" fill="url(#paint1_linear_1_50)"/>
<path d="M60.9487 0.118652H173.556C173.556 0.118652 168.449 25.8082 160.177 36.911C151.904 48.0138 141.223 56.9795 131.932 56.9795H86.9635C86.9635 56.9795 83.6188 57.537 81.7606 55.6788C79.9024 53.8206 80.274 50.6617 80.274 50.6617V32.2655C80.274 24.9329 78.3749 16.899 73.2632 11.2678C67.6233 5.05477 60.9487 0.118652 60.9487 0.118652Z" fill="url(#paint2_linear_1_50)"/>
<defs>
<linearGradient id="paint0_linear_1_50" x1="87" y1="0" x2="87" y2="217.9" gradientUnits="userSpaceOnUse">
<stop stop-color="#56A4CB"/>
<stop offset="1" stop-color="#161380"/>
</linearGradient>
<linearGradient id="paint1_linear_1_50" x1="106.097" y1="79.6495" x2="106.097" y2="140.982" gradientUnits="userSpaceOnUse">
<stop stop-color="#E49D4C"/>
<stop offset="1" stop-color="#9C5630"/>
</linearGradient>
<linearGradient id="paint2_linear_1_50" x1="117.252" y1="0.118652" x2="117.252" y2="57.0579" gradientUnits="userSpaceOnUse">
<stop stop-color="#FEFE5B"/>
<stop offset="0.986946" stop-color="#E49D4C"/>
</linearGradient>
</defs>
</svg>
