<svg width="440" height="117" viewBox="0 0 440 117" fill="none" xmlns="http://www.w3.org/2000/svg">
<path d="M137.803 56.3776V62.4791H117.595V56.3776H137.803ZM120.15 24.5144V62.4791H112.328V24.5144H120.15ZM135.169 39.9767V45.9217H117.595V39.9767H135.169ZM137.777 24.5144V30.6419H117.595V24.5144H137.777Z" fill="white"/>
<path d="M171.315 49.885H179.111C178.955 52.4404 178.251 54.7089 176.999 56.6905C175.765 58.6722 174.035 60.2193 171.81 61.3318C169.603 62.4443 166.943 63.0006 163.832 63.0006C161.398 63.0006 159.216 62.5834 157.287 61.749C155.357 60.8972 153.706 59.6804 152.333 58.0986C150.977 56.5167 149.942 54.6046 149.23 52.3621C148.517 50.1197 148.161 47.6078 148.161 44.8265V42.193C148.161 39.4117 148.526 36.8998 149.256 34.6574C150.003 32.3976 151.064 30.4768 152.437 28.8949C153.828 27.313 155.488 26.0962 157.417 25.2445C159.347 24.3927 161.502 23.9668 163.884 23.9668C167.047 23.9668 169.716 24.5404 171.889 25.6877C174.079 26.835 175.774 28.4169 176.973 30.4333C178.19 32.4498 178.92 34.7443 179.163 37.317H171.341C171.254 35.7873 170.95 34.4923 170.428 33.4319C169.907 32.3542 169.116 31.5458 168.056 31.007C167.013 30.4507 165.622 30.1726 163.884 30.1726C162.58 30.1726 161.441 30.4159 160.468 30.9027C159.494 31.3894 158.677 32.1282 158.017 33.119C157.356 34.1099 156.861 35.3614 156.531 36.8738C156.218 38.3687 156.061 40.1244 156.061 42.1409V44.8265C156.061 46.7908 156.209 48.5205 156.505 50.0154C156.8 51.493 157.252 52.7446 157.86 53.7702C158.486 54.7784 159.286 55.5432 160.259 56.0647C161.25 56.5688 162.441 56.8209 163.832 56.8209C165.466 56.8209 166.813 56.5602 167.873 56.0387C168.933 55.5172 169.742 54.7436 170.298 53.718C170.872 52.6924 171.211 51.4148 171.315 49.885Z" fill="white"/>
<path d="M222.375 42.6102V44.4094C222.375 47.295 221.984 49.885 221.202 52.1796C220.42 54.4742 219.316 56.4298 217.891 58.0464C216.465 59.6457 214.762 60.8712 212.78 61.7229C210.816 62.5747 208.634 63.0006 206.235 63.0006C203.854 63.0006 201.672 62.5747 199.69 61.7229C197.726 60.8712 196.023 59.6457 194.58 58.0464C193.137 56.4298 192.016 54.4742 191.216 52.1796C190.434 49.885 190.043 47.295 190.043 44.4094V42.6102C190.043 39.7072 190.434 37.1171 191.216 34.8399C191.998 32.5454 193.102 30.5898 194.528 28.9731C195.97 27.3565 197.674 26.1223 199.638 25.2705C201.62 24.4188 203.802 23.9929 206.183 23.9929C208.582 23.9929 210.764 24.4188 212.728 25.2705C214.71 26.1223 216.413 27.3565 217.838 28.9731C219.281 30.5898 220.394 32.5454 221.176 34.8399C221.976 37.1171 222.375 39.7072 222.375 42.6102ZM214.475 44.4094V42.5581C214.475 40.5416 214.292 38.7685 213.927 37.2388C213.562 35.7091 213.023 34.4227 212.311 33.3798C211.598 32.3368 210.729 31.5545 209.703 31.033C208.678 30.4942 207.504 30.2247 206.183 30.2247C204.862 30.2247 203.689 30.4942 202.663 31.033C201.655 31.5545 200.794 32.3368 200.082 33.3798C199.386 34.4227 198.856 35.7091 198.491 37.2388C198.126 38.7685 197.943 40.5416 197.943 42.5581V44.4094C197.943 46.4084 198.126 48.1815 198.491 49.7286C198.856 51.2583 199.395 52.5533 200.108 53.6137C200.82 54.6567 201.69 55.4476 202.715 55.9865C203.741 56.5254 204.914 56.7948 206.235 56.7948C207.556 56.7948 208.73 56.5254 209.755 55.9865C210.781 55.4476 211.641 54.6567 212.337 53.6137C213.032 52.5533 213.562 51.2583 213.927 49.7286C214.292 48.1815 214.475 46.4084 214.475 44.4094Z" fill="white"/>
<path d="M238.522 24.5144H245.145L254.897 52.3882L264.649 24.5144H271.272L257.556 62.4791H252.237L238.522 24.5144ZM234.95 24.5144H241.547L242.746 51.6842V62.4791H234.95V24.5144ZM268.247 24.5144H274.87V62.4791H267.048V51.6842L268.247 24.5144Z" fill="white"/>
<path d="M302.359 54.5524L311.303 24.5144H320.012L306.792 62.4791H301.055L302.359 54.5524ZM294.119 24.5144L303.037 54.5524L304.393 62.4791H298.604L285.463 24.5144H294.119Z" fill="white"/>
<path d="M355.975 56.3776V62.4791H335.767V56.3776H355.975ZM338.322 24.5144V62.4791H330.5V24.5144H338.322ZM353.341 39.9767V45.9217H335.767V39.9767H353.341ZM355.949 24.5144V30.6419H335.767V24.5144H355.949Z" fill="white"/>
<path d="M398.379 24.5144V62.4791H390.556L375.302 37.0302V62.4791H367.48V24.5144H375.302L390.582 49.9893V24.5144H398.379Z" fill="white"/>
<path d="M428.319 24.5144V62.4791H420.522V24.5144H428.319ZM440 24.5144V30.6419H409.023V24.5144H440Z" fill="white"/>
<path d="M132.738 95.903V97.1898H123.486V95.903H132.738ZM123.927 79.3464V97.1898H122.419V79.3464H123.927Z" fill="#F2D454"/>
<path d="M160.835 79.3464V97.1898H159.327V79.3464H160.835Z" fill="#F2D454"/>
<path d="M189.495 79.3464H191.015L197.608 95.0574L204.213 79.3464H205.721L198.184 97.1898H197.032L189.495 79.3464ZM189.029 79.3464H190.365L190.524 89.3955V97.1898H189.029V79.3464ZM204.875 79.3464H206.211V97.1898H204.704V89.3955L204.875 79.3464Z" fill="#F2D454"/>
<path d="M235.925 79.3464V97.1898H234.418V79.3464H235.925Z" fill="#F2D454"/>
<path d="M269.733 79.3464V97.1898H268.238V79.3464H269.733ZM275.848 79.3464V80.6454H262.134V79.3464H275.848Z" fill="#F2D454"/>
<path d="M312.413 95.903V97.1898H303.16V95.903H312.413ZM303.601 79.3464V97.1898H302.094V79.3464H303.601Z" fill="#F2D454"/>
<path d="M349.762 95.903V97.1898H339.725V95.903H349.762ZM340.178 79.3464V97.1898H338.671V79.3464H340.178ZM348.512 87.3489V88.6357H339.725V87.3489H348.512ZM349.701 79.3464V80.6454H339.725V79.3464H349.701Z" fill="#F2D454"/>
<path d="M386.4 92.8025C386.4 92.3123 386.319 91.8752 386.155 91.4912C385.992 91.1072 385.722 90.764 385.346 90.4617C384.979 90.1513 384.48 89.8653 383.851 89.6039C383.23 89.3343 382.454 89.0687 381.523 88.8073C380.632 88.554 379.827 88.2762 379.108 87.974C378.39 87.6717 377.773 87.3244 377.258 86.9323C376.751 86.5401 376.363 86.0826 376.094 85.5597C375.824 85.0286 375.689 84.4118 375.689 83.7092C375.689 83.0229 375.836 82.3979 376.131 81.8341C376.425 81.2704 376.837 80.7843 377.368 80.3758C377.907 79.9673 378.541 79.6527 379.268 79.4321C380.003 79.2116 380.808 79.1013 381.682 79.1013C382.932 79.1013 384.011 79.3382 384.917 79.8121C385.832 80.2859 386.539 80.9273 387.038 81.7361C387.544 82.5368 387.797 83.4355 387.797 84.4322H386.29C386.29 83.6561 386.106 82.9657 385.739 82.3611C385.379 81.7484 384.856 81.2704 384.17 80.9273C383.492 80.576 382.662 80.4003 381.682 80.4003C380.702 80.4003 379.876 80.5514 379.207 80.8537C378.545 81.1479 378.042 81.5441 377.699 82.0425C377.364 82.5327 377.197 83.0801 377.197 83.6847C377.197 84.1095 377.278 84.5017 377.442 84.8612C377.605 85.2125 377.871 85.5434 378.238 85.8538C378.614 86.1561 379.108 86.4421 379.721 86.7117C380.334 86.9731 381.09 87.2223 381.988 87.4592C382.936 87.7207 383.778 88.0107 384.513 88.3294C385.248 88.648 385.869 89.0156 386.376 89.4323C386.882 89.8408 387.266 90.3188 387.528 90.8662C387.789 91.4136 387.92 92.0508 387.92 92.778C387.92 93.5051 387.765 94.1587 387.454 94.7388C387.152 95.3107 386.723 95.7968 386.167 96.1971C385.62 96.5975 384.971 96.9038 384.219 97.1163C383.475 97.3287 382.662 97.4349 381.78 97.4349C380.988 97.4349 380.199 97.3328 379.415 97.1285C378.631 96.9243 377.912 96.6097 377.258 96.1849C376.613 95.7519 376.094 95.1963 375.702 94.5182C375.318 93.8401 375.126 93.0312 375.126 92.0917H376.621C376.621 92.8433 376.772 93.4765 377.074 93.9912C377.376 94.5059 377.777 94.9226 378.275 95.2412C378.782 95.5599 379.337 95.7927 379.942 95.9398C380.555 96.0787 381.167 96.1481 381.78 96.1481C382.72 96.1481 383.533 96.0092 384.219 95.7314C384.913 95.4537 385.448 95.0656 385.824 94.5672C386.208 94.0607 386.4 93.4724 386.4 92.8025Z" fill="#F2D454"/>
<path d="M424.62 92.8025C424.62 92.3123 424.538 91.8752 424.374 91.4912C424.211 91.1072 423.941 90.764 423.566 90.4617C423.198 90.1513 422.7 89.8653 422.07 89.6039C421.45 89.3343 420.673 89.0687 419.742 88.8073C418.851 88.554 418.047 88.2762 417.328 87.974C416.609 87.6717 415.992 87.3244 415.477 86.9323C414.971 86.5401 414.583 86.0826 414.313 85.5597C414.043 85.0286 413.909 84.4118 413.909 83.7092C413.909 83.0229 414.056 82.3979 414.35 81.8341C414.644 81.2704 415.056 80.7843 415.588 80.3758C416.127 79.9673 416.76 79.6527 417.487 79.4321C418.222 79.2116 419.027 79.1013 419.901 79.1013C421.151 79.1013 422.23 79.3382 423.137 79.8121C424.052 80.2859 424.758 80.9273 425.257 81.7361C425.763 82.5368 426.017 83.4355 426.017 84.4322H424.509C424.509 83.6561 424.325 82.9657 423.958 82.3611C423.598 81.7484 423.075 81.2704 422.389 80.9273C421.711 80.576 420.882 80.4003 419.901 80.4003C418.921 80.4003 418.096 80.5514 417.426 80.8537C416.764 81.1479 416.262 81.5441 415.918 82.0425C415.583 82.5327 415.416 83.0801 415.416 83.6847C415.416 84.1095 415.498 84.5017 415.661 84.8612C415.824 85.2125 416.09 85.5434 416.458 85.8538C416.833 86.1561 417.328 86.4421 417.941 86.7117C418.553 86.9731 419.309 87.2223 420.208 87.4592C421.155 87.7207 421.997 88.0107 422.732 88.3294C423.468 88.648 424.088 89.0156 424.595 89.4323C425.102 89.8408 425.486 90.3188 425.747 90.8662C426.008 91.4136 426.139 92.0508 426.139 92.778C426.139 93.5051 425.984 94.1587 425.673 94.7388C425.371 95.3107 424.942 95.7968 424.387 96.1971C423.839 96.5975 423.19 96.9038 422.438 97.1163C421.695 97.3287 420.882 97.4349 419.999 97.4349C419.207 97.4349 418.418 97.3328 417.634 97.1285C416.85 96.9243 416.131 96.6097 415.477 96.1849C414.832 95.7519 414.313 95.1963 413.921 94.5182C413.537 93.8401 413.345 93.0312 413.345 92.0917H414.84C414.84 92.8433 414.991 93.4765 415.293 93.9912C415.596 94.5059 415.996 94.9226 416.494 95.2412C417.001 95.5599 417.557 95.7927 418.161 95.9398C418.774 96.0787 419.387 96.1481 419.999 96.1481C420.939 96.1481 421.752 96.0092 422.438 95.7314C423.133 95.4537 423.668 95.0656 424.044 94.5672C424.428 94.0607 424.62 93.4724 424.62 92.8025Z" fill="#F2D454"/>
<path d="M0 116.36V0.063413C0 0.063413 13.8922 -1.12734 21.8305 6.81102C29.7689 14.7494 29.372 27.6492 29.372 27.6492V82.424C29.372 82.424 29.0407 85.7779 30.9596 87.584C32.7656 89.2837 35.7227 89.1716 35.7227 89.1716H55.767C55.767 89.1716 72.4376 87.9808 83.2536 98.7968C94.0697 109.613 92.8789 116.36 92.8789 116.36H0Z" fill="url(#paint0_linear_100_6)"/>
<path d="M70.4531 75.2794V44.9151H46.4395C46.4395 44.9151 45.2488 45.1136 44.058 44.3198C42.8673 43.5259 42.8673 42.5336 42.8673 42.5336V69.5241C42.8673 69.5241 42.6688 71.9056 44.455 73.6917C46.2411 75.4779 48.4241 75.2794 48.4241 75.2794H70.4531Z" fill="url(#paint1_linear_100_6)"/>
<path d="M32.5474 0.063385H92.6805C92.6805 0.063385 89.9536 13.7819 85.536 19.7108C81.1183 25.6398 75.4146 30.4276 70.4531 30.4276H46.4395C46.4395 30.4276 44.6534 30.7253 43.6611 29.733C42.6688 28.7407 42.8672 27.0538 42.8672 27.0538V17.2301C42.8672 13.3144 41.8531 9.02423 39.1234 6.01716C36.1117 2.69932 32.5474 0.063385 32.5474 0.063385Z" fill="url(#paint2_linear_100_6)"/>
<defs>
<linearGradient id="paint0_linear_100_6" x1="46.4588" y1="0" x2="46.4588" y2="116.36" gradientUnits="userSpaceOnUse">
<stop stop-color="#56A4CB"/>
<stop offset="1" stop-color="#161380"/>
</linearGradient>
<linearGradient id="paint1_linear_100_6" x1="56.6569" y1="42.5336" x2="56.6569" y2="75.286" gradientUnits="userSpaceOnUse">
<stop stop-color="#E49D4C"/>
<stop offset="1" stop-color="#9C5630"/>
</linearGradient>
<linearGradient id="paint2_linear_100_6" x1="62.6139" y1="0.063385" x2="62.6139" y2="30.4695" gradientUnits="userSpaceOnUse">
<stop stop-color="#FEFE5B"/>
<stop offset="0.986946" stop-color="#E49D4C"/>
</linearGradient>
</defs>
</svg>
