<svg width="448" height="122" viewBox="0 0 448 122" fill="none" xmlns="http://www.w3.org/2000/svg">
<mask id="path-1-outside-1_100_6" maskUnits="userSpaceOnUse" x="110.328" y="20.9668" width="338" height="51" fill="black">
<rect fill="white" x="110.328" y="20.9668" width="338" height="51"/>
<path d="M140.803 59.3776V65.4791H120.595V59.3776H140.803ZM123.15 27.5144V65.4791H115.328V27.5144H123.15ZM138.169 42.9767V48.9217H120.595V42.9767H138.169ZM140.777 27.5144V33.6419H120.595V27.5144H140.777Z"/>
<path d="M174.315 52.885H182.111C181.955 55.4404 181.251 57.7089 179.999 59.6905C178.765 61.6722 177.035 63.2193 174.81 64.3318C172.603 65.4443 169.943 66.0006 166.832 66.0006C164.398 66.0006 162.216 65.5834 160.287 64.749C158.357 63.8972 156.706 62.6804 155.333 61.0986C153.977 59.5167 152.942 57.6046 152.23 55.3621C151.517 53.1197 151.161 50.6078 151.161 47.8265V45.193C151.161 42.4117 151.526 39.8998 152.256 37.6574C153.003 35.3976 154.064 33.4768 155.437 31.8949C156.828 30.313 158.488 29.0962 160.417 28.2445C162.347 27.3927 164.502 26.9668 166.884 26.9668C170.047 26.9668 172.716 27.5404 174.889 28.6877C177.079 29.835 178.774 31.4169 179.973 33.4333C181.19 35.4498 181.92 37.7443 182.163 40.317H174.341C174.254 38.7873 173.95 37.4923 173.428 36.4319C172.907 35.3542 172.116 34.5458 171.056 34.007C170.013 33.4507 168.622 33.1726 166.884 33.1726C165.58 33.1726 164.441 33.4159 163.468 33.9027C162.494 34.3894 161.677 35.1282 161.017 36.119C160.356 37.1099 159.861 38.3614 159.531 39.8738C159.218 41.3687 159.061 43.1244 159.061 45.1409V47.8265C159.061 49.7908 159.209 51.5205 159.505 53.0154C159.8 54.493 160.252 55.7446 160.86 56.7702C161.486 57.7784 162.286 58.5432 163.259 59.0647C164.25 59.5688 165.441 59.8209 166.832 59.8209C168.466 59.8209 169.813 59.5602 170.873 59.0387C171.933 58.5172 172.742 57.7436 173.298 56.718C173.872 55.6924 174.211 54.4148 174.315 52.885Z"/>
<path d="M225.375 45.6102V47.4094C225.375 50.295 224.984 52.885 224.202 55.1796C223.42 57.4742 222.316 59.4298 220.891 61.0464C219.465 62.6457 217.762 63.8712 215.78 64.7229C213.816 65.5747 211.634 66.0006 209.235 66.0006C206.854 66.0006 204.672 65.5747 202.69 64.7229C200.726 63.8712 199.023 62.6457 197.58 61.0464C196.137 59.4298 195.016 57.4742 194.216 55.1796C193.434 52.885 193.043 50.295 193.043 47.4094V45.6102C193.043 42.7072 193.434 40.1171 194.216 37.8399C194.998 35.5454 196.102 33.5898 197.528 31.9731C198.97 30.3565 200.674 29.1223 202.638 28.2705C204.62 27.4188 206.802 26.9929 209.183 26.9929C211.582 26.9929 213.764 27.4188 215.728 28.2705C217.71 29.1223 219.413 30.3565 220.838 31.9731C222.281 33.5898 223.394 35.5454 224.176 37.8399C224.976 40.1171 225.375 42.7072 225.375 45.6102ZM217.475 47.4094V45.5581C217.475 43.5416 217.292 41.7685 216.927 40.2388C216.562 38.7091 216.023 37.4227 215.311 36.3798C214.598 35.3368 213.729 34.5545 212.703 34.033C211.678 33.4942 210.504 33.2247 209.183 33.2247C207.862 33.2247 206.689 33.4942 205.663 34.033C204.655 34.5545 203.794 35.3368 203.082 36.3798C202.386 37.4227 201.856 38.7091 201.491 40.2388C201.126 41.7685 200.943 43.5416 200.943 45.5581V47.4094C200.943 49.4084 201.126 51.1815 201.491 52.7286C201.856 54.2583 202.395 55.5533 203.108 56.6137C203.82 57.6567 204.69 58.4476 205.715 58.9865C206.741 59.5254 207.914 59.7948 209.235 59.7948C210.556 59.7948 211.73 59.5254 212.755 58.9865C213.781 58.4476 214.641 57.6567 215.337 56.6137C216.032 55.5533 216.562 54.2583 216.927 52.7286C217.292 51.1815 217.475 49.4084 217.475 47.4094Z"/>
<path d="M241.522 27.5144H248.145L257.897 55.3882L267.649 27.5144H274.272L260.556 65.4791H255.237L241.522 27.5144ZM237.95 27.5144H244.547L245.746 54.6842V65.4791H237.95V27.5144ZM271.247 27.5144H277.87V65.4791H270.048V54.6842L271.247 27.5144Z"/>
<path d="M305.359 57.5524L314.303 27.5144H323.012L309.792 65.4791H304.055L305.359 57.5524ZM297.119 27.5144L306.037 57.5524L307.393 65.4791H301.604L288.463 27.5144H297.119Z"/>
<path d="M358.975 59.3776V65.4791H338.767V59.3776H358.975ZM341.322 27.5144V65.4791H333.5V27.5144H341.322ZM356.341 42.9767V48.9217H338.767V42.9767H356.341ZM358.949 27.5144V33.6419H338.767V27.5144H358.949Z"/>
<path d="M401.379 27.5144V65.4791H393.556L378.302 40.0302V65.4791H370.48V27.5144H378.302L393.582 52.9893V27.5144H401.379Z"/>
<path d="M431.319 27.5144V65.4791H423.522V27.5144H431.319ZM443 27.5144V33.6419H412.023V27.5144H443Z"/>
</mask>
<path d="M140.803 59.3776V65.4791H120.595V59.3776H140.803ZM123.15 27.5144V65.4791H115.328V27.5144H123.15ZM138.169 42.9767V48.9217H120.595V42.9767H138.169ZM140.777 27.5144V33.6419H120.595V27.5144H140.777Z" fill="white"/>
<path d="M174.315 52.885H182.111C181.955 55.4404 181.251 57.7089 179.999 59.6905C178.765 61.6722 177.035 63.2193 174.81 64.3318C172.603 65.4443 169.943 66.0006 166.832 66.0006C164.398 66.0006 162.216 65.5834 160.287 64.749C158.357 63.8972 156.706 62.6804 155.333 61.0986C153.977 59.5167 152.942 57.6046 152.23 55.3621C151.517 53.1197 151.161 50.6078 151.161 47.8265V45.193C151.161 42.4117 151.526 39.8998 152.256 37.6574C153.003 35.3976 154.064 33.4768 155.437 31.8949C156.828 30.313 158.488 29.0962 160.417 28.2445C162.347 27.3927 164.502 26.9668 166.884 26.9668C170.047 26.9668 172.716 27.5404 174.889 28.6877C177.079 29.835 178.774 31.4169 179.973 33.4333C181.19 35.4498 181.92 37.7443 182.163 40.317H174.341C174.254 38.7873 173.95 37.4923 173.428 36.4319C172.907 35.3542 172.116 34.5458 171.056 34.007C170.013 33.4507 168.622 33.1726 166.884 33.1726C165.58 33.1726 164.441 33.4159 163.468 33.9027C162.494 34.3894 161.677 35.1282 161.017 36.119C160.356 37.1099 159.861 38.3614 159.531 39.8738C159.218 41.3687 159.061 43.1244 159.061 45.1409V47.8265C159.061 49.7908 159.209 51.5205 159.505 53.0154C159.8 54.493 160.252 55.7446 160.86 56.7702C161.486 57.7784 162.286 58.5432 163.259 59.0647C164.25 59.5688 165.441 59.8209 166.832 59.8209C168.466 59.8209 169.813 59.5602 170.873 59.0387C171.933 58.5172 172.742 57.7436 173.298 56.718C173.872 55.6924 174.211 54.4148 174.315 52.885Z" fill="white"/>
<path d="M225.375 45.6102V47.4094C225.375 50.295 224.984 52.885 224.202 55.1796C223.42 57.4742 222.316 59.4298 220.891 61.0464C219.465 62.6457 217.762 63.8712 215.78 64.7229C213.816 65.5747 211.634 66.0006 209.235 66.0006C206.854 66.0006 204.672 65.5747 202.69 64.7229C200.726 63.8712 199.023 62.6457 197.58 61.0464C196.137 59.4298 195.016 57.4742 194.216 55.1796C193.434 52.885 193.043 50.295 193.043 47.4094V45.6102C193.043 42.7072 193.434 40.1171 194.216 37.8399C194.998 35.5454 196.102 33.5898 197.528 31.9731C198.97 30.3565 200.674 29.1223 202.638 28.2705C204.62 27.4188 206.802 26.9929 209.183 26.9929C211.582 26.9929 213.764 27.4188 215.728 28.2705C217.71 29.1223 219.413 30.3565 220.838 31.9731C222.281 33.5898 223.394 35.5454 224.176 37.8399C224.976 40.1171 225.375 42.7072 225.375 45.6102ZM217.475 47.4094V45.5581C217.475 43.5416 217.292 41.7685 216.927 40.2388C216.562 38.7091 216.023 37.4227 215.311 36.3798C214.598 35.3368 213.729 34.5545 212.703 34.033C211.678 33.4942 210.504 33.2247 209.183 33.2247C207.862 33.2247 206.689 33.4942 205.663 34.033C204.655 34.5545 203.794 35.3368 203.082 36.3798C202.386 37.4227 201.856 38.7091 201.491 40.2388C201.126 41.7685 200.943 43.5416 200.943 45.5581V47.4094C200.943 49.4084 201.126 51.1815 201.491 52.7286C201.856 54.2583 202.395 55.5533 203.108 56.6137C203.82 57.6567 204.69 58.4476 205.715 58.9865C206.741 59.5254 207.914 59.7948 209.235 59.7948C210.556 59.7948 211.73 59.5254 212.755 58.9865C213.781 58.4476 214.641 57.6567 215.337 56.6137C216.032 55.5533 216.562 54.2583 216.927 52.7286C217.292 51.1815 217.475 49.4084 217.475 47.4094Z" fill="white"/>
<path d="M241.522 27.5144H248.145L257.897 55.3882L267.649 27.5144H274.272L260.556 65.4791H255.237L241.522 27.5144ZM237.95 27.5144H244.547L245.746 54.6842V65.4791H237.95V27.5144ZM271.247 27.5144H277.87V65.4791H270.048V54.6842L271.247 27.5144Z" fill="white"/>
<path d="M305.359 57.5524L314.303 27.5144H323.012L309.792 65.4791H304.055L305.359 57.5524ZM297.119 27.5144L306.037 57.5524L307.393 65.4791H301.604L288.463 27.5144H297.119Z" fill="white"/>
<path d="M358.975 59.3776V65.4791H338.767V59.3776H358.975ZM341.322 27.5144V65.4791H333.5V27.5144H341.322ZM356.341 42.9767V48.9217H338.767V42.9767H356.341ZM358.949 27.5144V33.6419H338.767V27.5144H358.949Z" fill="white"/>
<path d="M401.379 27.5144V65.4791H393.556L378.302 40.0302V65.4791H370.48V27.5144H378.302L393.582 52.9893V27.5144H401.379Z" fill="white"/>
<path d="M431.319 27.5144V65.4791H423.522V27.5144H431.319ZM443 27.5144V33.6419H412.023V27.5144H443Z" fill="white"/>
<path d="M140.803 59.3776V65.4791H120.595V59.3776H140.803ZM123.15 27.5144V65.4791H115.328V27.5144H123.15ZM138.169 42.9767V48.9217H120.595V42.9767H138.169ZM140.777 27.5144V33.6419H120.595V27.5144H140.777Z" stroke="#0C1438" stroke-width="10" mask="url(#path-1-outside-1_100_6)"/>
<path d="M174.315 52.885H182.111C181.955 55.4404 181.251 57.7089 179.999 59.6905C178.765 61.6722 177.035 63.2193 174.81 64.3318C172.603 65.4443 169.943 66.0006 166.832 66.0006C164.398 66.0006 162.216 65.5834 160.287 64.749C158.357 63.8972 156.706 62.6804 155.333 61.0986C153.977 59.5167 152.942 57.6046 152.23 55.3621C151.517 53.1197 151.161 50.6078 151.161 47.8265V45.193C151.161 42.4117 151.526 39.8998 152.256 37.6574C153.003 35.3976 154.064 33.4768 155.437 31.8949C156.828 30.313 158.488 29.0962 160.417 28.2445C162.347 27.3927 164.502 26.9668 166.884 26.9668C170.047 26.9668 172.716 27.5404 174.889 28.6877C177.079 29.835 178.774 31.4169 179.973 33.4333C181.19 35.4498 181.92 37.7443 182.163 40.317H174.341C174.254 38.7873 173.95 37.4923 173.428 36.4319C172.907 35.3542 172.116 34.5458 171.056 34.007C170.013 33.4507 168.622 33.1726 166.884 33.1726C165.58 33.1726 164.441 33.4159 163.468 33.9027C162.494 34.3894 161.677 35.1282 161.017 36.119C160.356 37.1099 159.861 38.3614 159.531 39.8738C159.218 41.3687 159.061 43.1244 159.061 45.1409V47.8265C159.061 49.7908 159.209 51.5205 159.505 53.0154C159.8 54.493 160.252 55.7446 160.86 56.7702C161.486 57.7784 162.286 58.5432 163.259 59.0647C164.25 59.5688 165.441 59.8209 166.832 59.8209C168.466 59.8209 169.813 59.5602 170.873 59.0387C171.933 58.5172 172.742 57.7436 173.298 56.718C173.872 55.6924 174.211 54.4148 174.315 52.885Z" stroke="#0C1438" stroke-width="10" mask="url(#path-1-outside-1_100_6)"/>
<path d="M225.375 45.6102V47.4094C225.375 50.295 224.984 52.885 224.202 55.1796C223.42 57.4742 222.316 59.4298 220.891 61.0464C219.465 62.6457 217.762 63.8712 215.78 64.7229C213.816 65.5747 211.634 66.0006 209.235 66.0006C206.854 66.0006 204.672 65.5747 202.69 64.7229C200.726 63.8712 199.023 62.6457 197.58 61.0464C196.137 59.4298 195.016 57.4742 194.216 55.1796C193.434 52.885 193.043 50.295 193.043 47.4094V45.6102C193.043 42.7072 193.434 40.1171 194.216 37.8399C194.998 35.5454 196.102 33.5898 197.528 31.9731C198.97 30.3565 200.674 29.1223 202.638 28.2705C204.62 27.4188 206.802 26.9929 209.183 26.9929C211.582 26.9929 213.764 27.4188 215.728 28.2705C217.71 29.1223 219.413 30.3565 220.838 31.9731C222.281 33.5898 223.394 35.5454 224.176 37.8399C224.976 40.1171 225.375 42.7072 225.375 45.6102ZM217.475 47.4094V45.5581C217.475 43.5416 217.292 41.7685 216.927 40.2388C216.562 38.7091 216.023 37.4227 215.311 36.3798C214.598 35.3368 213.729 34.5545 212.703 34.033C211.678 33.4942 210.504 33.2247 209.183 33.2247C207.862 33.2247 206.689 33.4942 205.663 34.033C204.655 34.5545 203.794 35.3368 203.082 36.3798C202.386 37.4227 201.856 38.7091 201.491 40.2388C201.126 41.7685 200.943 43.5416 200.943 45.5581V47.4094C200.943 49.4084 201.126 51.1815 201.491 52.7286C201.856 54.2583 202.395 55.5533 203.108 56.6137C203.82 57.6567 204.69 58.4476 205.715 58.9865C206.741 59.5254 207.914 59.7948 209.235 59.7948C210.556 59.7948 211.73 59.5254 212.755 58.9865C213.781 58.4476 214.641 57.6567 215.337 56.6137C216.032 55.5533 216.562 54.2583 216.927 52.7286C217.292 51.1815 217.475 49.4084 217.475 47.4094Z" stroke="#0C1438" stroke-width="10" mask="url(#path-1-outside-1_100_6)"/>
<path d="M241.522 27.5144H248.145L257.897 55.3882L267.649 27.5144H274.272L260.556 65.4791H255.237L241.522 27.5144ZM237.95 27.5144H244.547L245.746 54.6842V65.4791H237.95V27.5144ZM271.247 27.5144H277.87V65.4791H270.048V54.6842L271.247 27.5144Z" stroke="#0C1438" stroke-width="10" mask="url(#path-1-outside-1_100_6)"/>
<path d="M305.359 57.5524L314.303 27.5144H323.012L309.792 65.4791H304.055L305.359 57.5524ZM297.119 27.5144L306.037 57.5524L307.393 65.4791H301.604L288.463 27.5144H297.119Z" stroke="#0C1438" stroke-width="10" mask="url(#path-1-outside-1_100_6)"/>
<path d="M358.975 59.3776V65.4791H338.767V59.3776H358.975ZM341.322 27.5144V65.4791H333.5V27.5144H341.322ZM356.341 42.9767V48.9217H338.767V42.9767H356.341ZM358.949 27.5144V33.6419H338.767V27.5144H358.949Z" stroke="#0C1438" stroke-width="10" mask="url(#path-1-outside-1_100_6)"/>
<path d="M401.379 27.5144V65.4791H393.556L378.302 40.0302V65.4791H370.48V27.5144H378.302L393.582 52.9893V27.5144H401.379Z" stroke="#0C1438" stroke-width="10" mask="url(#path-1-outside-1_100_6)"/>
<path d="M431.319 27.5144V65.4791H423.522V27.5144H431.319ZM443 27.5144V33.6419H412.023V27.5144H443Z" stroke="#0C1438" stroke-width="10" mask="url(#path-1-outside-1_100_6)"/>
<mask id="path-2-outside-2_100_6" maskUnits="userSpaceOnUse" x="120.419" y="77.1013" width="314" height="34" fill="black">
<rect fill="white" x="120.419" y="77.1013" width="314" height="34"/>
<path d="M135.738 98.903V100.19H126.486V98.903H135.738ZM126.927 82.3464V100.19H125.419V82.3464H126.927Z"/>
<path d="M163.835 82.3464V100.19H162.327V82.3464H163.835Z"/>
<path d="M192.495 82.3464H194.015L200.608 98.0574L207.213 82.3464H208.721L201.184 100.19H200.032L192.495 82.3464ZM192.029 82.3464H193.365L193.524 92.3955V100.19H192.029V82.3464ZM207.875 82.3464H209.211V100.19H207.704V92.3955L207.875 82.3464Z"/>
<path d="M238.925 82.3464V100.19H237.418V82.3464H238.925Z"/>
<path d="M272.733 82.3464V100.19H271.238V82.3464H272.733ZM278.848 82.3464V83.6454H265.134V82.3464H278.848Z"/>
<path d="M315.413 98.903V100.19H306.16V98.903H315.413ZM306.601 82.3464V100.19H305.094V82.3464H306.601Z"/>
<path d="M352.762 98.903V100.19H342.725V98.903H352.762ZM343.178 82.3464V100.19H341.671V82.3464H343.178ZM351.512 90.3489V91.6357H342.725V90.3489H351.512ZM352.701 82.3464V83.6454H342.725V82.3464H352.701Z"/>
<path d="M389.4 95.8025C389.4 95.3123 389.319 94.8752 389.155 94.4912C388.992 94.1072 388.722 93.764 388.346 93.4617C387.979 93.1513 387.48 92.8653 386.851 92.6039C386.23 92.3343 385.454 92.0687 384.523 91.8073C383.632 91.554 382.827 91.2762 382.108 90.974C381.39 90.6717 380.773 90.3244 380.258 89.9323C379.751 89.5401 379.363 89.0826 379.094 88.5597C378.824 88.0286 378.689 87.4118 378.689 86.7092C378.689 86.0229 378.836 85.3979 379.131 84.8341C379.425 84.2704 379.837 83.7843 380.368 83.3758C380.907 82.9673 381.541 82.6527 382.268 82.4321C383.003 82.2116 383.808 82.1013 384.682 82.1013C385.932 82.1013 387.011 82.3382 387.917 82.8121C388.832 83.2859 389.539 83.9273 390.038 84.7361C390.544 85.5368 390.797 86.4355 390.797 87.4322H389.29C389.29 86.6561 389.106 85.9657 388.739 85.3611C388.379 84.7484 387.856 84.2704 387.17 83.9273C386.492 83.576 385.662 83.4003 384.682 83.4003C383.702 83.4003 382.876 83.5514 382.207 83.8537C381.545 84.1479 381.042 84.5441 380.699 85.0425C380.364 85.5327 380.197 86.0801 380.197 86.6847C380.197 87.1095 380.278 87.5017 380.442 87.8612C380.605 88.2125 380.871 88.5434 381.238 88.8538C381.614 89.1561 382.108 89.4421 382.721 89.7117C383.334 89.9731 384.09 90.2223 384.988 90.4592C385.936 90.7207 386.778 91.0107 387.513 91.3294C388.248 91.648 388.869 92.0156 389.376 92.4323C389.882 92.8408 390.266 93.3188 390.528 93.8662C390.789 94.4136 390.92 95.0508 390.92 95.778C390.92 96.5051 390.765 97.1587 390.454 97.7388C390.152 98.3107 389.723 98.7968 389.167 99.1971C388.62 99.5975 387.971 99.9038 387.219 100.116C386.475 100.329 385.662 100.435 384.78 100.435C383.988 100.435 383.199 100.333 382.415 100.129C381.631 99.9243 380.912 99.6097 380.258 99.1849C379.613 98.7519 379.094 98.1963 378.702 97.5182C378.318 96.8401 378.126 96.0312 378.126 95.0917H379.621C379.621 95.8433 379.772 96.4765 380.074 96.9912C380.376 97.5059 380.777 97.9226 381.275 98.2412C381.782 98.5599 382.337 98.7927 382.942 98.9398C383.555 99.0787 384.167 99.1481 384.78 99.1481C385.72 99.1481 386.533 99.0092 387.219 98.7314C387.913 98.4537 388.448 98.0656 388.824 97.5672C389.208 97.0607 389.4 96.4724 389.4 95.8025Z"/>
<path d="M427.62 95.8025C427.62 95.3123 427.538 94.8752 427.374 94.4912C427.211 94.1072 426.941 93.764 426.566 93.4617C426.198 93.1513 425.7 92.8653 425.07 92.6039C424.45 92.3343 423.673 92.0687 422.742 91.8073C421.851 91.554 421.047 91.2762 420.328 90.974C419.609 90.6717 418.992 90.3244 418.477 89.9323C417.971 89.5401 417.583 89.0826 417.313 88.5597C417.043 88.0286 416.909 87.4118 416.909 86.7092C416.909 86.0229 417.056 85.3979 417.35 84.8341C417.644 84.2704 418.056 83.7843 418.588 83.3758C419.127 82.9673 419.76 82.6527 420.487 82.4321C421.222 82.2116 422.027 82.1013 422.901 82.1013C424.151 82.1013 425.23 82.3382 426.137 82.8121C427.052 83.2859 427.758 83.9273 428.257 84.7361C428.763 85.5368 429.017 86.4355 429.017 87.4322H427.509C427.509 86.6561 427.325 85.9657 426.958 85.3611C426.598 84.7484 426.075 84.2704 425.389 83.9273C424.711 83.576 423.882 83.4003 422.901 83.4003C421.921 83.4003 421.096 83.5514 420.426 83.8537C419.764 84.1479 419.262 84.5441 418.918 85.0425C418.583 85.5327 418.416 86.0801 418.416 86.6847C418.416 87.1095 418.498 87.5017 418.661 87.8612C418.824 88.2125 419.09 88.5434 419.458 88.8538C419.833 89.1561 420.328 89.4421 420.941 89.7117C421.553 89.9731 422.309 90.2223 423.208 90.4592C424.155 90.7207 424.997 91.0107 425.732 91.3294C426.468 91.648 427.088 92.0156 427.595 92.4323C428.102 92.8408 428.486 93.3188 428.747 93.8662C429.008 94.4136 429.139 95.0508 429.139 95.778C429.139 96.5051 428.984 97.1587 428.673 97.7388C428.371 98.3107 427.942 98.7968 427.387 99.1971C426.839 99.5975 426.19 99.9038 425.438 100.116C424.695 100.329 423.882 100.435 422.999 100.435C422.207 100.435 421.418 100.333 420.634 100.129C419.85 99.9243 419.131 99.6097 418.477 99.1849C417.832 98.7519 417.313 98.1963 416.921 97.5182C416.537 96.8401 416.345 96.0312 416.345 95.0917H417.84C417.84 95.8433 417.991 96.4765 418.293 96.9912C418.596 97.5059 418.996 97.9226 419.494 98.2412C420.001 98.5599 420.557 98.7927 421.161 98.9398C421.774 99.0787 422.387 99.1481 422.999 99.1481C423.939 99.1481 424.752 99.0092 425.438 98.7314C426.133 98.4537 426.668 98.0656 427.044 97.5672C427.428 97.0607 427.62 96.4724 427.62 95.8025Z"/>
</mask>
<path d="M135.738 98.903V100.19H126.486V98.903H135.738ZM126.927 82.3464V100.19H125.419V82.3464H126.927Z" fill="#F2D454"/>
<path d="M163.835 82.3464V100.19H162.327V82.3464H163.835Z" fill="#F2D454"/>
<path d="M192.495 82.3464H194.015L200.608 98.0574L207.213 82.3464H208.721L201.184 100.19H200.032L192.495 82.3464ZM192.029 82.3464H193.365L193.524 92.3955V100.19H192.029V82.3464ZM207.875 82.3464H209.211V100.19H207.704V92.3955L207.875 82.3464Z" fill="#F2D454"/>
<path d="M238.925 82.3464V100.19H237.418V82.3464H238.925Z" fill="#F2D454"/>
<path d="M272.733 82.3464V100.19H271.238V82.3464H272.733ZM278.848 82.3464V83.6454H265.134V82.3464H278.848Z" fill="#F2D454"/>
<path d="M315.413 98.903V100.19H306.16V98.903H315.413ZM306.601 82.3464V100.19H305.094V82.3464H306.601Z" fill="#F2D454"/>
<path d="M352.762 98.903V100.19H342.725V98.903H352.762ZM343.178 82.3464V100.19H341.671V82.3464H343.178ZM351.512 90.3489V91.6357H342.725V90.3489H351.512ZM352.701 82.3464V83.6454H342.725V82.3464H352.701Z" fill="#F2D454"/>
<path d="M389.4 95.8025C389.4 95.3123 389.319 94.8752 389.155 94.4912C388.992 94.1072 388.722 93.764 388.346 93.4617C387.979 93.1513 387.48 92.8653 386.851 92.6039C386.23 92.3343 385.454 92.0687 384.523 91.8073C383.632 91.554 382.827 91.2762 382.108 90.974C381.39 90.6717 380.773 90.3244 380.258 89.9323C379.751 89.5401 379.363 89.0826 379.094 88.5597C378.824 88.0286 378.689 87.4118 378.689 86.7092C378.689 86.0229 378.836 85.3979 379.131 84.8341C379.425 84.2704 379.837 83.7843 380.368 83.3758C380.907 82.9673 381.541 82.6527 382.268 82.4321C383.003 82.2116 383.808 82.1013 384.682 82.1013C385.932 82.1013 387.011 82.3382 387.917 82.8121C388.832 83.2859 389.539 83.9273 390.038 84.7361C390.544 85.5368 390.797 86.4355 390.797 87.4322H389.29C389.29 86.6561 389.106 85.9657 388.739 85.3611C388.379 84.7484 387.856 84.2704 387.17 83.9273C386.492 83.576 385.662 83.4003 384.682 83.4003C383.702 83.4003 382.876 83.5514 382.207 83.8537C381.545 84.1479 381.042 84.5441 380.699 85.0425C380.364 85.5327 380.197 86.0801 380.197 86.6847C380.197 87.1095 380.278 87.5017 380.442 87.8612C380.605 88.2125 380.871 88.5434 381.238 88.8538C381.614 89.1561 382.108 89.4421 382.721 89.7117C383.334 89.9731 384.09 90.2223 384.988 90.4592C385.936 90.7207 386.778 91.0107 387.513 91.3294C388.248 91.648 388.869 92.0156 389.376 92.4323C389.882 92.8408 390.266 93.3188 390.528 93.8662C390.789 94.4136 390.92 95.0508 390.92 95.778C390.92 96.5051 390.765 97.1587 390.454 97.7388C390.152 98.3107 389.723 98.7968 389.167 99.1971C388.62 99.5975 387.971 99.9038 387.219 100.116C386.475 100.329 385.662 100.435 384.78 100.435C383.988 100.435 383.199 100.333 382.415 100.129C381.631 99.9243 380.912 99.6097 380.258 99.1849C379.613 98.7519 379.094 98.1963 378.702 97.5182C378.318 96.8401 378.126 96.0312 378.126 95.0917H379.621C379.621 95.8433 379.772 96.4765 380.074 96.9912C380.376 97.5059 380.777 97.9226 381.275 98.2412C381.782 98.5599 382.337 98.7927 382.942 98.9398C383.555 99.0787 384.167 99.1481 384.78 99.1481C385.72 99.1481 386.533 99.0092 387.219 98.7314C387.913 98.4537 388.448 98.0656 388.824 97.5672C389.208 97.0607 389.4 96.4724 389.4 95.8025Z" fill="#F2D454"/>
<path d="M427.62 95.8025C427.62 95.3123 427.538 94.8752 427.374 94.4912C427.211 94.1072 426.941 93.764 426.566 93.4617C426.198 93.1513 425.7 92.8653 425.07 92.6039C424.45 92.3343 423.673 92.0687 422.742 91.8073C421.851 91.554 421.047 91.2762 420.328 90.974C419.609 90.6717 418.992 90.3244 418.477 89.9323C417.971 89.5401 417.583 89.0826 417.313 88.5597C417.043 88.0286 416.909 87.4118 416.909 86.7092C416.909 86.0229 417.056 85.3979 417.35 84.8341C417.644 84.2704 418.056 83.7843 418.588 83.3758C419.127 82.9673 419.76 82.6527 420.487 82.4321C421.222 82.2116 422.027 82.1013 422.901 82.1013C424.151 82.1013 425.23 82.3382 426.137 82.8121C427.052 83.2859 427.758 83.9273 428.257 84.7361C428.763 85.5368 429.017 86.4355 429.017 87.4322H427.509C427.509 86.6561 427.325 85.9657 426.958 85.3611C426.598 84.7484 426.075 84.2704 425.389 83.9273C424.711 83.576 423.882 83.4003 422.901 83.4003C421.921 83.4003 421.096 83.5514 420.426 83.8537C419.764 84.1479 419.262 84.5441 418.918 85.0425C418.583 85.5327 418.416 86.0801 418.416 86.6847C418.416 87.1095 418.498 87.5017 418.661 87.8612C418.824 88.2125 419.09 88.5434 419.458 88.8538C419.833 89.1561 420.328 89.4421 420.941 89.7117C421.553 89.9731 422.309 90.2223 423.208 90.4592C424.155 90.7207 424.997 91.0107 425.732 91.3294C426.468 91.648 427.088 92.0156 427.595 92.4323C428.102 92.8408 428.486 93.3188 428.747 93.8662C429.008 94.4136 429.139 95.0508 429.139 95.778C429.139 96.5051 428.984 97.1587 428.673 97.7388C428.371 98.3107 427.942 98.7968 427.387 99.1971C426.839 99.5975 426.19 99.9038 425.438 100.116C424.695 100.329 423.882 100.435 422.999 100.435C422.207 100.435 421.418 100.333 420.634 100.129C419.85 99.9243 419.131 99.6097 418.477 99.1849C417.832 98.7519 417.313 98.1963 416.921 97.5182C416.537 96.8401 416.345 96.0312 416.345 95.0917H417.84C417.84 95.8433 417.991 96.4765 418.293 96.9912C418.596 97.5059 418.996 97.9226 419.494 98.2412C420.001 98.5599 420.557 98.7927 421.161 98.9398C421.774 99.0787 422.387 99.1481 422.999 99.1481C423.939 99.1481 424.752 99.0092 425.438 98.7314C426.133 98.4537 426.668 98.0656 427.044 97.5672C427.428 97.0607 427.62 96.4724 427.62 95.8025Z" fill="#F2D454"/>
<path d="M135.738 98.903V100.19H126.486V98.903H135.738ZM126.927 82.3464V100.19H125.419V82.3464H126.927Z" stroke="#0C1438" stroke-width="10" mask="url(#path-2-outside-2_100_6)"/>
<path d="M163.835 82.3464V100.19H162.327V82.3464H163.835Z" stroke="#0C1438" stroke-width="10" mask="url(#path-2-outside-2_100_6)"/>
<path d="M192.495 82.3464H194.015L200.608 98.0574L207.213 82.3464H208.721L201.184 100.19H200.032L192.495 82.3464ZM192.029 82.3464H193.365L193.524 92.3955V100.19H192.029V82.3464ZM207.875 82.3464H209.211V100.19H207.704V92.3955L207.875 82.3464Z" stroke="#0C1438" stroke-width="10" mask="url(#path-2-outside-2_100_6)"/>
<path d="M238.925 82.3464V100.19H237.418V82.3464H238.925Z" stroke="#0C1438" stroke-width="10" mask="url(#path-2-outside-2_100_6)"/>
<path d="M272.733 82.3464V100.19H271.238V82.3464H272.733ZM278.848 82.3464V83.6454H265.134V82.3464H278.848Z" stroke="#0C1438" stroke-width="10" mask="url(#path-2-outside-2_100_6)"/>
<path d="M315.413 98.903V100.19H306.16V98.903H315.413ZM306.601 82.3464V100.19H305.094V82.3464H306.601Z" stroke="#0C1438" stroke-width="10" mask="url(#path-2-outside-2_100_6)"/>
<path d="M352.762 98.903V100.19H342.725V98.903H352.762ZM343.178 82.3464V100.19H341.671V82.3464H343.178ZM351.512 90.3489V91.6357H342.725V90.3489H351.512ZM352.701 82.3464V83.6454H342.725V82.3464H352.701Z" stroke="#0C1438" stroke-width="10" mask="url(#path-2-outside-2_100_6)"/>
<path d="M389.4 95.8025C389.4 95.3123 389.319 94.8752 389.155 94.4912C388.992 94.1072 388.722 93.764 388.346 93.4617C387.979 93.1513 387.48 92.8653 386.851 92.6039C386.23 92.3343 385.454 92.0687 384.523 91.8073C383.632 91.554 382.827 91.2762 382.108 90.974C381.39 90.6717 380.773 90.3244 380.258 89.9323C379.751 89.5401 379.363 89.0826 379.094 88.5597C378.824 88.0286 378.689 87.4118 378.689 86.7092C378.689 86.0229 378.836 85.3979 379.131 84.8341C379.425 84.2704 379.837 83.7843 380.368 83.3758C380.907 82.9673 381.541 82.6527 382.268 82.4321C383.003 82.2116 383.808 82.1013 384.682 82.1013C385.932 82.1013 387.011 82.3382 387.917 82.8121C388.832 83.2859 389.539 83.9273 390.038 84.7361C390.544 85.5368 390.797 86.4355 390.797 87.4322H389.29C389.29 86.6561 389.106 85.9657 388.739 85.3611C388.379 84.7484 387.856 84.2704 387.17 83.9273C386.492 83.576 385.662 83.4003 384.682 83.4003C383.702 83.4003 382.876 83.5514 382.207 83.8537C381.545 84.1479 381.042 84.5441 380.699 85.0425C380.364 85.5327 380.197 86.0801 380.197 86.6847C380.197 87.1095 380.278 87.5017 380.442 87.8612C380.605 88.2125 380.871 88.5434 381.238 88.8538C381.614 89.1561 382.108 89.4421 382.721 89.7117C383.334 89.9731 384.09 90.2223 384.988 90.4592C385.936 90.7207 386.778 91.0107 387.513 91.3294C388.248 91.648 388.869 92.0156 389.376 92.4323C389.882 92.8408 390.266 93.3188 390.528 93.8662C390.789 94.4136 390.92 95.0508 390.92 95.778C390.92 96.5051 390.765 97.1587 390.454 97.7388C390.152 98.3107 389.723 98.7968 389.167 99.1971C388.62 99.5975 387.971 99.9038 387.219 100.116C386.475 100.329 385.662 100.435 384.78 100.435C383.988 100.435 383.199 100.333 382.415 100.129C381.631 99.9243 380.912 99.6097 380.258 99.1849C379.613 98.7519 379.094 98.1963 378.702 97.5182C378.318 96.8401 378.126 96.0312 378.126 95.0917H379.621C379.621 95.8433 379.772 96.4765 380.074 96.9912C380.376 97.5059 380.777 97.9226 381.275 98.2412C381.782 98.5599 382.337 98.7927 382.942 98.9398C383.555 99.0787 384.167 99.1481 384.78 99.1481C385.72 99.1481 386.533 99.0092 387.219 98.7314C387.913 98.4537 388.448 98.0656 388.824 97.5672C389.208 97.0607 389.4 96.4724 389.4 95.8025Z" stroke="#0C1438" stroke-width="10" mask="url(#path-2-outside-2_100_6)"/>
<path d="M427.62 95.8025C427.62 95.3123 427.538 94.8752 427.374 94.4912C427.211 94.1072 426.941 93.764 426.566 93.4617C426.198 93.1513 425.7 92.8653 425.07 92.6039C424.45 92.3343 423.673 92.0687 422.742 91.8073C421.851 91.554 421.047 91.2762 420.328 90.974C419.609 90.6717 418.992 90.3244 418.477 89.9323C417.971 89.5401 417.583 89.0826 417.313 88.5597C417.043 88.0286 416.909 87.4118 416.909 86.7092C416.909 86.0229 417.056 85.3979 417.35 84.8341C417.644 84.2704 418.056 83.7843 418.588 83.3758C419.127 82.9673 419.76 82.6527 420.487 82.4321C421.222 82.2116 422.027 82.1013 422.901 82.1013C424.151 82.1013 425.23 82.3382 426.137 82.8121C427.052 83.2859 427.758 83.9273 428.257 84.7361C428.763 85.5368 429.017 86.4355 429.017 87.4322H427.509C427.509 86.6561 427.325 85.9657 426.958 85.3611C426.598 84.7484 426.075 84.2704 425.389 83.9273C424.711 83.576 423.882 83.4003 422.901 83.4003C421.921 83.4003 421.096 83.5514 420.426 83.8537C419.764 84.1479 419.262 84.5441 418.918 85.0425C418.583 85.5327 418.416 86.0801 418.416 86.6847C418.416 87.1095 418.498 87.5017 418.661 87.8612C418.824 88.2125 419.09 88.5434 419.458 88.8538C419.833 89.1561 420.328 89.4421 420.941 89.7117C421.553 89.9731 422.309 90.2223 423.208 90.4592C424.155 90.7207 424.997 91.0107 425.732 91.3294C426.468 91.648 427.088 92.0156 427.595 92.4323C428.102 92.8408 428.486 93.3188 428.747 93.8662C429.008 94.4136 429.139 95.0508 429.139 95.778C429.139 96.5051 428.984 97.1587 428.673 97.7388C428.371 98.3107 427.942 98.7968 427.387 99.1971C426.839 99.5975 426.19 99.9038 425.438 100.116C424.695 100.329 423.882 100.435 422.999 100.435C422.207 100.435 421.418 100.333 420.634 100.129C419.85 99.9243 419.131 99.6097 418.477 99.1849C417.832 98.7519 417.313 98.1963 416.921 97.5182C416.537 96.8401 416.345 96.0312 416.345 95.0917H417.84C417.84 95.8433 417.991 96.4765 418.293 96.9912C418.596 97.5059 418.996 97.9226 419.494 98.2412C420.001 98.5599 420.557 98.7927 421.161 98.9398C421.774 99.0787 422.387 99.1481 422.999 99.1481C423.939 99.1481 424.752 99.0092 425.438 98.7314C426.133 98.4537 426.668 98.0656 427.044 97.5672C427.428 97.0607 427.62 96.4724 427.62 95.8025Z" stroke="#0C1438" stroke-width="10" mask="url(#path-2-outside-2_100_6)"/>
<path d="M3 119.36V3.06341C3 3.06341 16.8922 1.87266 24.8305 9.81102C32.7689 17.7494 32.372 30.6492 32.372 30.6492V85.424C32.372 85.424 32.0407 88.7779 33.9596 90.584C35.7656 92.2837 38.7227 92.1716 38.7227 92.1716H58.767C58.767 92.1716 75.4376 90.9808 86.2536 101.797C97.0697 112.613 95.8789 119.36 95.8789 119.36H3Z" fill="url(#paint0_linear_100_6)" stroke="#0C1438" stroke-width="5"/>
<path d="M73.4531 78.2794V47.9151H49.4395C49.4395 47.9151 48.2488 48.1136 47.058 47.3198C45.8673 46.5259 45.8673 45.5336 45.8673 45.5336V72.5241C45.8673 72.5241 45.6688 74.9056 47.455 76.6917C49.2411 78.4779 51.4241 78.2794 51.4241 78.2794H73.4531Z" fill="url(#paint1_linear_100_6)" stroke="#0C1438" stroke-width="5"/>
<path d="M35.5474 3.06339H95.6805C95.6805 3.06339 92.9536 16.7819 88.536 22.7108C84.1183 28.6398 78.4146 33.4276 73.4531 33.4276H49.4395C49.4395 33.4276 47.6534 33.7253 46.6611 32.733C45.6688 31.7407 45.8672 30.0538 45.8672 30.0538V20.2301C45.8672 16.3144 44.8531 12.0242 42.1234 9.01716C39.1117 5.69932 35.5474 3.06339 35.5474 3.06339Z" fill="url(#paint2_linear_100_6)" stroke="#0C1438" stroke-width="5"/>
<defs>
<linearGradient id="paint0_linear_100_6" x1="49.4588" y1="3" x2="49.4588" y2="119.36" gradientUnits="userSpaceOnUse">
<stop stop-color="#56A4CB"/>
<stop offset="1" stop-color="#161380"/>
</linearGradient>
<linearGradient id="paint1_linear_100_6" x1="59.6569" y1="45.5336" x2="59.6569" y2="78.286" gradientUnits="userSpaceOnUse">
<stop stop-color="#E49D4C"/>
<stop offset="1" stop-color="#9C5630"/>
</linearGradient>
<linearGradient id="paint2_linear_100_6" x1="65.6139" y1="3.06339" x2="65.6139" y2="33.4695" gradientUnits="userSpaceOnUse">
<stop stop-color="#FEFE5B"/>
<stop offset="0.986946" stop-color="#E49D4C"/>
</linearGradient>
</defs>
</svg>
